<svg width="48" height="48" fill="none" xmlns="http://www.w3.org/2000/svg"><g clip-path="url(#clip0)" fill="#fff" stroke="#fff" stroke-width=".4"><path d="M16.5 13.688a.938.938 0 1 0 0-1.876.938.938 0 0 0 0 1.876zM16.5 19.313a.938.938 0 1 0 0-1.876.938.938 0 0 0 0 1.875z"/><path d="M14.625 48h22.5a6.57 6.57 0 0 0 6.563-6.563.937.937 0 0 0-.938-.937h-2.813V4.687A4.693 4.693 0 0 0 35.25 0H8.062a3.754 3.754 0 0 0-3.75 3.75v4.688c0 .517.42.937.938.937h4.688v33.737c0 2.547 1.939 4.888 4.687 4.888zm22.5-1.875H18.373c.59-.784.94-1.768.94-2.822v-.938h22.405c-.435 2.138-2.33 3.76-4.593 3.76zm.938-41.438V40.5H18.375a.937.937 0 0 0-.938.938v1.874a2.816 2.816 0 0 1-2.812 2.813c-1.68 0-2.813-1.455-2.813-3.013V3.75c0-.676-.18-1.318-.5-1.875H35.25a2.816 2.816 0 0 1 2.813 2.813zM6.186 7.5V3.75c0-1.034.842-1.875 1.875-1.875 1.026 0 1.876.827 1.876 1.875V7.5h-3.75z"/><path d="M24.938 26.813a5.57 5.57 0 0 0 1.875 4.189v6.123a.937.937 0 0 0 1.457.78l2.293-1.528 2.292 1.528a.937.937 0 0 0 1.458-.78v-6.123a5.57 5.57 0 0 0 1.874-4.19 5.631 5.631 0 0 0-5.624-5.625 5.631 5.631 0 0 0-5.625 5.625zm6.145 7.657a.938.938 0 0 0-1.04 0l-1.355.903v-3.256c.595.211 1.226.32 1.875.32.648 0 1.279-.109 1.875-.32v3.256l-1.356-.903zm3.23-7.657a3.75 3.75 0 0 1-3.75 3.75 3.748 3.748 0 0 1-3.75-3.75 3.754 3.754 0 0 1 3.75-3.75 3.754 3.754 0 0 1 3.75 3.75zM16.5 8.063h16.875a.937.937 0 1 0 0-1.876H16.5a.937.937 0 1 0 0 1.875zM20.25 13.688h13.125a.937.937 0 1 0 0-1.876H20.25a.937.937 0 1 0 0 1.876zM20.25 19.313h13.125a.937.937 0 1 0 0-1.875H20.25a.937.937 0 1 0 0 1.875zM16.5 30.563h5.625a.937.937 0 1 0 0-1.875H16.5a.937.937 0 1 0 0 1.875zM16.5 24.938h5.625a.937.937 0 1 0 0-1.875H16.5a.937.937 0 1 0 0 1.875zM16.5 36.188h5.625a.937.937 0 1 0 0-1.876H16.5a.937.937 0 1 0 0 1.876z"/></g><defs><clipPath id="clip0"><path fill="#fff" d="M0 0h48v48H0z"/></clipPath></defs></svg>