<svg width="48" height="48" fill="none" xmlns="http://www.w3.org/2000/svg"><path d="M47.063 9.136H39.74V7.814c0-1.543-1.256-2.8-2.8-2.8h-2.233v-.051a2.528 2.528 0 0 0-2.526-2.526h-20.48c-4.7 0-8.524 3.824-8.524 8.524v2.752c0 1.967.852 3.834 2.336 5.124.162.14.229.364.171.57L1.92 32.83A3.192 3.192 0 0 0 0 35.755a3.191 3.191 0 0 0 3.188 3.188h3.334c.457 3.216 3.228 5.697 6.569 5.697h.235a6.643 6.643 0 0 0 6.635-6.635v-8.897c0-.977.796-1.773 1.773-1.773.977 0 1.773.796 1.773 1.773v15.466a.937.937 0 1 0 1.875 0V29.108a3.652 3.652 0 0 0-3.648-3.648 3.652 3.652 0 0 0-3.648 3.648v8.897a4.766 4.766 0 0 1-4.76 4.76h-.235a4.768 4.768 0 0 1-4.667-3.822h3.175a3.191 3.191 0 0 0 3.188-3.188c0-1.265-.74-2.36-1.81-2.874l2.46-9.15h3.084a4.054 4.054 0 0 0 3.935-3.165l.714-3.248h9.011a2.53 2.53 0 0 0 2.503-2.186h2.256c1.544 0 2.8-1.256 2.8-2.8V11.01h7.322a.937.937 0 1 0 0-1.874zM11.599 37.067H3.188a1.314 1.314 0 0 1-1.313-1.313c0-.724.589-1.313 1.313-1.313h8.411c.724 0 1.313.589 1.313 1.313s-.59 1.313-1.313 1.313zm9.026-16.904a2.168 2.168 0 0 1-2.104 1.693h-2.58l.705-2.624a2.593 2.593 0 0 1 .114-.332l.01-.025.034-.073a2.392 2.392 0 0 1 .125-.234l.014-.022a2.593 2.593 0 0 1 2.202-1.23h2.105l-.625 2.847zm12.206-5.372a.65.65 0 0 1-.65.65H19.146a4.472 4.472 0 0 0-4.31 3.305l-1.023 3.804v.002L11.12 32.567H3.94l.49-1.749h2.88c1.157 0 2.18-.78 2.485-1.896a.937.937 0 1 0-1.809-.495.703.703 0 0 1-.676.516H4.957l2.068-7.375h1.921c.22 0 .424.1.558.276a.697.697 0 0 1 .119.61.937.937 0 1 0 1.808.495 2.557 2.557 0 0 0-.437-2.243 2.557 2.557 0 0 0-2.048-1.013H7.54a2.444 2.444 0 0 0-.797-2.272 4.907 4.907 0 0 1-1.69-3.707V10.96A6.656 6.656 0 0 1 11.7 4.312h20.481c.359 0 .65.292.65.65v9.83zm5.034-2.46c0 .51-.415.925-.925.925h-2.233V6.89h2.233c.51 0 .925.414.925.924v4.518z" fill="#273142"/><path d="M11.23 6.988a.938.938 0 0 0-1.252.437l-1.51 3.125a.937.937 0 0 0 1.69.815l1.509-3.125a.937.937 0 0 0-.437-1.252zM15.98 6.988a.937.937 0 0 0-1.252.437l-1.51 3.125a.937.937 0 0 0 1.69.815l1.509-3.125a.937.937 0 0 0-.437-1.252zM9.645 24.985a.937.937 0 0 0-.938.938v.002a.937.937 0 1 0 1.875-.002.937.937 0 0 0-.937-.938z" fill="#273142"/></svg>