<svg width="48" height="48" fill="none" xmlns="http://www.w3.org/2000/svg"><path d="M28.678 20.625a.938.938 0 1 0 0-1.875.938.938 0 0 0 0 1.875zM20.24 19.688a.938.938 0 1 0-1.875 0 .938.938 0 0 0 1.875 0z" fill="#273142"/><path d="M11.678 32.11l-.087.011c-2.698.35-5.06 1.697-6.48 3.695a9.336 9.336 0 0 0-1.736 5.439v5.807c0 .518.42.938.938.938h39.374c.518 0 .938-.42.938-.938v-5.81c0-1.958-.6-3.838-1.735-5.435-1.42-1.998-3.782-3.345-6.483-3.696l-6.009-.78-.618-2.796a12.17 12.17 0 0 0 6.08-7.92h.468a4.693 4.693 0 0 0 4.688-4.688 4.693 4.693 0 0 0-4.688-4.687h-.14v-.938C36.188 4.627 31.56 0 25.874 0h-3.75c-5.627 0-10.214 4.53-10.31 10.133a2.17 2.17 0 0 0-.002.426v.693a4.693 4.693 0 0 0-4.547 4.685 4.693 4.693 0 0 0 4.687 4.688h.187a12.17 12.17 0 0 0 6.08 7.916l-.618 2.8-5.924.768zM24 30a12.1 12.1 0 0 0 4.03-.683l.617 2.79A4.669 4.669 0 0 1 24 36.188a4.669 4.669 0 0 1-4.647-4.08l.616-2.79C21.26 29.77 22.61 30 24 30zm0 8.063a6.538 6.538 0 0 0 6.333-4.84l4.917.638v12.264H12.74V33.862l4.927-.639A6.537 6.537 0 0 0 24 38.063zM5.25 41.255c0-1.57.48-3.074 1.39-4.353.948-1.335 2.465-2.302 4.235-2.738v11.961H5.25v-4.87zm36.111-4.352a7.466 7.466 0 0 1 1.389 4.35v4.872h-5.635V34.159c1.778.434 3.293 1.403 4.246 2.744zM19.313 7.97c0-2.937 1.618-5.398 3.75-5.97v7.376H19.44a7.806 7.806 0 0 1-.128-1.406zm9.247 1.406h-3.632v-7.38c2.142.562 3.76 3.026 3.76 5.974 0 .477-.044.948-.128 1.406zm5.483 1.875C32.811 13.505 28.061 15 23.991 15c-4.513 0-8.951-1.729-10.053-3.75h20.105zm2.285 1.875a2.816 2.816 0 0 1 2.813 2.813 2.816 2.816 0 0 1-2.813 2.812h-.178c.024-.312.038-.625.038-.938v-4.687h.14zm-2.068-3.75h-3.8a9.75 9.75 0 0 0 .102-1.406c0-2.195-.734-4.185-1.92-5.627 3.014 1.049 5.255 3.762 5.618 7.033zm-14.9-7.034c-1.187 1.443-1.922 3.434-1.922 5.628 0 .474.034.944.102 1.406h-3.8c.363-3.272 2.605-5.985 5.62-7.034zM9.14 15.937a2.816 2.816 0 0 1 2.672-2.808v4.684c0 .311.014.623.038.934a2.816 2.816 0 0 1-2.71-2.81zm4.547 1.876v-4.028c2.556 2.143 6.884 3.09 10.304 3.09 3.916 0 8.016-1.168 10.322-3.106v4.043A10.306 10.306 0 0 1 24 28.126c-1.507 0-2.959-.317-4.314-.943a10.302 10.302 0 0 1-5.998-9.37z" fill="#273142"/><path d="M21.486 25.57a5.839 5.839 0 0 0 2.505.558c.857 0 1.684-.18 2.458-.536a.938.938 0 0 0-.783-1.704 3.978 3.978 0 0 1-1.675.365c-.596 0-1.17-.128-1.707-.38a.937.937 0 1 0-.798 1.696zM28.678 43.688h3.75a.937.937 0 1 0 0-1.876h-3.75a.938.938 0 0 0 0 1.876zM24.685 41.826a.939.939 0 0 1 .318 1.848.939.939 0 0 1-.318-1.848z" fill="#273142"/></svg>